<svg width="215" height="280" viewBox="0 0 215 280" fill="none" xmlns="http://www.w3.org/2000/svg">
<ellipse cx="107.715" cy="75.0589" rx="30.1782" ry="3.869" fill="#734E2E"/>
<rect x="102.297" y="41.7454" width="11.239" height="37.7311" fill="url(#paint0_linear_704_304)"/>
<path d="M163.789 37.731C152.149 53.3854 144.619 57.8008 130.875 57.8008C128.065 57.8008 104.784 56.998 106.39 43.752C106.39 27.1257 123.65 0 163.789 0C177.534 0 173.042 25.2878 163.789 37.731Z" fill="url(#paint1_linear_704_304)"/>
<path d="M52.9254 38.5337C64.5659 54.1881 70.1854 57.8007 83.9297 57.8007C86.7395 57.8007 108.995 56.9979 107.389 43.7519C106.367 35.3226 98.2829 1.60547 53.7282 1.60547C45.299 1.60547 43.6728 26.0905 52.9254 38.5337Z" fill="url(#paint2_linear_704_304)"/>
<path d="M95.4737 41.7449C89.5122 36.4457 75.6717 29.8369 68.9818 27.6961C67.7776 27.2947 63.7637 24.0836 71.7915 24.8864C79.8194 25.6891 93.4668 35.724 95.8751 37.3296C98.2835 38.9352 99.0863 44.9561 95.4737 41.7449Z" fill="#13959A"/>
<path d="M119.209 41.8733C125.17 36.5741 145.648 20.8727 160.098 17.6615C163.521 16.9007 165.316 14.049 157.288 14.8518C141.232 16.4573 121.072 35.6546 118.807 37.4579C115.944 39.7382 115.944 44.1535 119.209 41.8733Z" fill="#1FA4AD"/>
<path d="M142.917 279.906H66.6525C-25.2662 269.839 -19.2449 93.6786 67.0543 73.0884C80.9443 69.7744 93.911 78.9717 105.357 78.8694C117.395 78.7619 127.915 69.4968 142.917 71.7157C246.477 87.2727 228.816 284.939 142.917 279.906Z" fill="#4E347F"/>
<path d="M121.532 210.462H39.5675C-10.1207 210.462 0.0718002 111.719 47.6366 111.719H120.683C175.892 111.719 170.371 210.462 121.532 210.462Z" fill="url(#paint3_linear_704_304)"/>
<path d="M123.65 206.317H46.1814C-0.781517 206.317 8.85195 114.799 53.8078 114.799H122.848C175.029 114.799 169.811 206.317 123.65 206.317Z" fill="#FFCBF6"/>
<path d="M92.7434 175.409C89.5323 175.409 92.7433 182.232 83.9127 182.232C75.0821 182.232 78.2932 175.409 74.6806 175.409C71.0681 175.409 71.4695 189.457 84.3141 189.457C97.1587 189.457 95.9546 175.409 92.7434 175.409Z" fill="#9464D2"/>
<path d="M41.0459 142.644C31.2974 142.644 23.2959 150.713 23.2959 160.788C23.296 170.863 31.2974 178.93 41.0459 178.93C50.7943 178.93 58.7958 170.863 58.7959 160.788C58.7959 150.713 50.7944 142.644 41.0459 142.644Z" fill="black" stroke="white" stroke-width="6.1904"/>
<path d="M126.164 142.644C116.415 142.644 108.414 150.713 108.414 160.788C108.414 170.863 116.415 178.93 126.164 178.93C135.912 178.93 143.913 170.863 143.914 160.788C143.914 150.713 135.912 142.644 126.164 142.644Z" fill="black" stroke="white" stroke-width="6.1904"/>
<defs>
<linearGradient id="paint0_linear_704_304" x1="102.297" y1="60.2095" x2="113.536" y2="60.2095" gradientUnits="userSpaceOnUse">
<stop stop-color="#59D59D"/>
<stop offset="1" stop-color="#0C90A0"/>
</linearGradient>
<linearGradient id="paint1_linear_704_304" x1="139.402" y1="0" x2="139.402" y2="57.8008" gradientUnits="userSpaceOnUse">
<stop stop-color="#A7FBA3"/>
<stop offset="0.272187" stop-color="#AEFDA5"/>
<stop offset="1" stop-color="#1A8FA1"/>
</linearGradient>
<linearGradient id="paint2_linear_704_304" x1="77.0683" y1="1.60547" x2="77.0683" y2="57.8007" gradientUnits="userSpaceOnUse">
<stop stop-color="#C0F8B3"/>
<stop offset="0.275017" stop-color="#B9FFAF"/>
<stop offset="1" stop-color="#1587A2"/>
</linearGradient>
<linearGradient id="paint3_linear_704_304" x1="83.4791" y1="111.719" x2="83.4791" y2="210.462" gradientUnits="userSpaceOnUse">
<stop stop-color="#9464D2"/>
<stop offset="0.510017" stop-color="#A288DE"/>
<stop offset="1" stop-color="#D7DCFB"/>
</linearGradient>
</defs>
</svg>
